Coordinates
version=1
nRows=29
nColumns=24
inDegrees=yes

Units are S.I. units (second, meters, Newtons, ...)
Angles are in degrees.

endheader
time	pelvis_tilt	pelvis_list	pelvis_rotation	pelvis_tx	pelvis_ty	pelvis_tz	hip_flexion_r	hip_adduction_r	hip_rotation_r	knee_angle_r	ankle_angle_r	subtalar_angle_r	mtp_angle_r	hip_flexion_l	hip_adduction_l	hip_rotation_l	knee_angle_l	ankle_angle_l	subtalar_angle_l	mtp_angle_l	lumbar_extension	lumbar_bending	lumbar_rotation
      3.99000000	     -8.42111508	     -1.26746676	     12.63972507	     -1.13630618	     -0.04643944	      0.57218258	     36.06159002	     -7.30858435	    -25.99677501	    -14.41971974	      0.21174728	      7.37194081	      3.92778658	     -8.34997062	     -0.20907663	      7.88309823	    -12.15848890	     17.15605885	     16.38772604	     -0.50502036	      4.96224748	     -1.39285791	    -14.83640373
      3.99500000	     -8.37597897	     -1.59712179	     12.76897460	     -1.12890081	     -0.04753814	      0.57233697	     36.02803566	     -7.01765485	    -26.02581072	    -15.01703261	     -0.36449483	      6.58737987	      3.56877272	     -8.42325437	     -0.75518348	      7.26046145	    -12.89767803	     17.38518227	     17.57537591	     -0.34834192	      5.06544622	     -0.99559889	    -14.91875449
      4.00000000	     -8.35575035	     -1.91584339	     12.90458170	     -1.12149474	     -0.04858650	      0.57241466	     36.03667776	     -6.77465425	    -26.07941065	    -15.67485209	     -1.01311997	      5.87849584	      3.41047969	     -8.49129861	     -1.26335190	      6.93779315	    -13.59009232	     17.45170226	     18.33260287	     -0.12071787	      5.19431710	     -0.60635201	    -14.99145299
      4.00500000	     -8.32705902	     -2.27412834	     13.01132141	     -1.11406660	     -0.04955246	      0.57251945	     36.05160958	     -6.47901989	    -26.05388726	    -16.35311112	     -1.76102867	      5.09042321	      3.28677345	     -8.53031356	     -1.81631440	      6.55695319	    -14.33195161	     17.46388397	     19.11926850	      0.18057401	      5.32751754	     -0.16285562	    -15.02456095
      4.01000000	     -8.33016617	     -2.68998918	     13.15021227	     -1.10663734	     -0.05043622	      0.57255983	     36.10592270	     -6.17000943	    -26.03937920	    -17.05470404	     -2.55507105	      4.34127956	      3.11915314	     -8.48840706	     -2.41186093	      6.36743707	    -15.12819419	     17.39951988	     19.70044122	      0.45915506	      5.51080561	      0.33061274	    -15.08691819
      4.01500000	     -8.25624495	     -3.06958929	     13.10500636	     -1.09919471	     -0.05122879	      0.57294171	     36.15227587	     -5.75131755	    -25.76106596	    -17.83927208	     -3.39412992	      3.30984749	      2.89193393	     -8.50196626	     -3.01351163	      5.61265188	    -16.00142364	     17.27098607	     20.76547834	      0.96142504	      5.58979855	      0.81520233	    -14.95891661
      4.02000000	     -8.21507863	     -3.49637697	     13.11655115	     -1.09178755	     -0.05193493	      0.57320493	     36.23909601	     -5.34269520	    -25.48851304	    -18.66097783	     -4.19230707	      2.31300241	      2.56524642	     -8.41713546	     -3.65150244	      5.06160483	    -16.94973368	     17.04038861	     21.66390601	      1.56498006	      5.71754543	      1.34679901	    -14.85281328
      4.02500000	     -8.17515475	     -3.94035746	     13.09420229	     -1.08437106	     -0.05255205	      0.57350738	     36.35471118	     -4.89828098	    -25.13625785	    -19.54002902	     -4.93715620	      1.27402516	      2.12958754	     -8.28424563	     -4.30875300	      4.45659080	    -17.97866599	     16.70047448	     22.55313738	      2.22933241	      5.85045881	      1.89944505	    -14.76522479
      4.03000000	     -8.13237973	     -4.39081553	     13.02785367	     -1.07695303	     -0.05310671	      0.57389338	     36.49328857	     -4.41426210	    -24.70431874	    -20.47427850	     -5.57796443	      0.20787888	      1.58148755	     -8.10301277	     -4.98640652	      3.77064945	    -19.09865972	     16.24701585	     23.52992951	      3.08632780	      5.97826398	      2.46210493	    -14.56938930
      4.03500000	     -8.09945387	     -4.85775199	     12.96356493	     -1.06953284	     -0.05356320	      0.57427323	     36.63835097	     -3.90554385	    -24.23652060	    -21.41306310	     -6.13528352	     -0.87769493	      0.98834976	     -7.84665793	     -5.68757704	      3.08659621	    -20.32203396	     15.64139480	     24.47715408	      4.02330648	      6.12372748	      3.04109726	    -14.41720515
      4.04000000	     -8.02104371	     -5.24999623	     12.85157506	     -1.06221987	     -0.05392637	      0.57480144	     36.75493222	     -3.41332550	    -23.69011772	    -22.41156226	     -6.53519842	     -1.90970783	      0.26583122	     -7.60480572	     -6.34525692	      2.32993278	    -21.59582916	     14.80544884	     25.52842020	      5.54175696	      6.17070761	      3.54981906	    -14.14814248
      4.04500000	     -8.02223551	     -5.74984435	     12.74872039	     -1.05476167	     -0.05428356	      0.57523417	     36.91143323	     -2.82361752	    -23.18256463	    -23.30458445	     -6.91242718	     -2.98107467	     -0.22999714	     -7.19072224	     -7.09937031	      1.61992298	    -23.03626608	     13.92354596	     26.46268055	      6.57321161	      6.36405537	      4.15762427	    -14.00620880
      4.05000000	     -7.99856609	     -6.19841123	     12.61772311	     -1.04740807	     -0.05455931	      0.57580058	     37.02805083	     -2.23281944	    -22.64678077	    -24.17390624	     -7.19740992	     -4.04824515	     -0.68999327	     -6.74757339	     -7.83649700	      0.87044558	    -24.56643392	     12.83091190	     27.48675708	      7.90108772	      6.49060522	      4.70946875	    -13.77689647
      4.05500000	     -7.88617142	     -6.51925420	     12.43273056	     -1.04015639	     -0.05462589	      0.57647083	     37.01752028	     -1.68581779	    -22.04619115	    -25.01522670	     -7.34559045	     -4.98715169	     -1.13050191	     -6.41660408	     -8.46587706	      0.12040702	    -26.01549905	     11.24735000	     28.30136707	     10.40583909	      6.45766699	      5.15140926	    -13.42649561
      4.06000000	     -7.87391094	     -6.92066447	     12.27349740	     -1.03284983	     -0.05472768	      0.57711684	     37.05480410	     -1.08263397	    -21.54955944	    -25.72226509	     -7.49658554	     -5.93870297	     -1.30362699	     -5.86522571	     -9.18231717	     -0.56735299	    -27.68213849	      9.67428373	     29.15792263	     12.01501012	      6.57190812	      5.64478045	    -13.19166986
      4.06500000	     -7.91773831	     -7.38963873	     12.13908647	     -1.02554181	     -0.05488324	      0.57771047	     37.10150862	     -0.44037639	    -21.17823668	    -26.33006105	     -7.51729754	     -6.72444223	     -1.33646295	     -5.14996359	     -9.97440862	     -1.17016366	    -29.51753014	      8.07550926	     29.93872619	     13.16826867	      6.76757865	      6.19538815	    -13.01086270
      4.07000000	     -7.85345738	     -7.68146611	     11.95449354	     -1.01844472	     -0.05475324	      0.57851924	     36.98951884	      0.13394563	    -20.70516708	    -26.86836097	     -7.57553360	     -7.67762230	     -1.22133137	     -4.57351306	    -10.61110694	     -1.75480719	    -31.23150660	      5.96386180	     30.45364244	     15.35786681	      6.75071429	      6.57001276	    -12.70017360
      4.07500000	     -7.90256522	     -8.10600006	     11.80576854	     -1.01122009	     -0.05473469	      0.57918023	     36.92742316	      0.77357378	    -20.38980960	    -27.27918085	     -7.45026202	     -8.27849747	     -1.06989587	     -3.75712237	    -11.36943674	     -2.21614583	    -33.15173667	      3.99392101	     30.88814553	     16.38927311	      6.92673914	      7.06151031	    -12.52552638
      4.08000000	     -7.86500207	     -8.36656552	     11.63722355	     -1.00428112	     -0.05450249	      0.58000463	     36.74119752	      1.31235856	    -20.04755348	    -27.64451552	     -7.34582247	     -9.01858727	     -0.71375339	     -3.02212744	    -11.97662200	     -2.64292501	    -34.99125267	      1.67202297	     31.04487117	     18.16967698	      6.90838599	      7.38610253	    -12.25215632
      4.08500000	     -7.88674800	     -8.71208222	     11.50910832	     -0.99738996	     -0.05431904	      0.58073443	     36.57080375	      1.88992628	    -19.80949555	    -27.91414489	     -7.13346093	     -9.54176591	     -0.47950881	     -2.10141233	    -12.65615801	     -2.93833467	    -37.00181885	     -0.47208362	     31.05218781	     18.94941207	      6.98229366	      7.78667925	    -12.07505173
      4.09000000	     -7.89822811	     -9.03011826	     11.34611092	     -0.99046755	     -0.05399265	      0.58149423	     36.32945981	      2.47142851	    -19.59922974	    -28.08698779	     -6.89704896	    -10.02157401	     -0.13793600	     -1.18944451	    -13.28693944	     -3.18454351	    -38.93877108	     -2.75081754	     30.68244092	     19.84793081	      7.04364563	      8.16012400	    -11.83944941
      4.09500000	     -7.91755325	     -9.37799823	     11.23072422	     -0.98366343	     -0.05365802	      0.58220037	     36.06411498	      3.04286946	    -19.49877802	    -28.20773718	     -6.53970267	    -10.29413796	      0.04859060	     -0.16381794	    -13.94792414	     -3.32904559	    -40.97933036	     -4.83830172	     30.26460244	     20.03824256	      7.11148829	      8.55340557	    -11.67655009
      4.10000000	     -7.93571012	     -9.70406713	     11.11100349	     -0.97698323	     -0.05323981	      0.58291887	     35.76175073	      3.60734863	    -19.38992029	    -28.25421089	     -6.21061975	    -10.60087021	      0.25613429	      0.90713170	    -14.55890324	     -3.40252373	    -43.00106969	     -6.87682709	     29.52013331	     20.24819914	      7.15517985	      8.92392831	    -11.49959946
      4.10500000	     -7.85041019	     -9.97730264	     10.96554848	     -0.97037548	     -0.05263294	      0.58359457	     35.30611292	      4.15569215	    -19.27302188	    -28.25482296	     -5.75997882	    -10.67428456	      0.38036672	      1.86693639	    -15.09402950	     -3.44713040	    -44.98692768	     -8.73187495	     28.51952691	     20.03587290	      7.05941612	      9.27058917	    -11.25348747
      4.11000000	     -7.90652226	    -10.34626054	     10.90014486	     -0.96386019	     -0.05210805	      0.58423176	     34.97504019	      4.71807088	    -19.30224168	    -28.15385349	     -5.44631597	    -10.87121882	      0.55466829	      3.11090254	    -15.70189685	     -3.33970676	    -47.00100503	    -10.45940774	     27.51316556	     19.98856322	      7.15167480	      9.67020462	    -11.13712009
      4.11500000	     -7.82274267	    -10.62180037	     10.75770920	     -0.95736950	     -0.05137148	      0.58486869	     34.44830305	      5.27646968	    -19.19926216	    -28.01295404	     -4.99451683	    -10.88104533	      0.67493562	      4.14096575	    -16.20088615	     -3.31278607	    -48.92205752	    -11.93709795	     26.29576479	     19.70217890	      7.04924229	     10.01819224	    -10.90225617
      4.12000000	     -7.76195784	    -10.91503244	     10.63967183	     -0.95091996	     -0.05057295	      0.58546021	     33.91739770	      5.83015081	    -19.15636749	    -27.81422041	     -4.58144213	    -10.86784869	      0.78197295	      5.23736719	    -16.68496685	     -3.19958873	    -50.80047784	    -13.19841343	     25.05987748	     19.39460728	      6.98007842	     10.37495754	    -10.70600836
      4.12500000	     -7.78152426	    -11.23972515	     10.63281678	     -0.94460807	     -0.04977371	      0.58586481	     33.44425321	      6.31449402	    -19.31175750	    -27.53784638	     -4.24363607	    -10.84185466	      0.93903851	      6.52801056	    -17.13717756	     -2.88767150	    -52.68262066	    -14.16711811	     23.90573707	     19.01845699	      7.01873110	     10.73504910	    -10.59726848
      4.13000000	     -7.68756967	    -11.46252736	     10.49661552	     -0.93823073	     -0.04877155	      0.58638157	     32.80054147	      6.82699328	    -19.20781417	    -27.22393781	     -3.81720407	    -10.72747082	      1.04691223	      7.57600170	    -17.49681505	     -2.76778963	    -54.41331289	    -14.90169180	     22.73014349	     18.70652114	      6.89007619	     11.03243248	    -10.37150311
